<svg width="687" height="687" viewBox="0 0 687 687" fill="none" xmlns="http://www.w3.org/2000/svg">
<path d="M409.087 20.2878C480.471 7.75542 561.461 48.7339 609.337 102.942C657.185 157.151 681.123 234.787 661.989 311.592C666.095 243.026 627.639 171.508 579.549 119.393C535.135 69.1829 483.825 38.08 409.087 20.7172V20.2878Z" fill="#1A9E7A"/>
<path d="M396.42 98.5145C450.28 78.6559 529.07 118.239 561.381 173.816C588.271 220.135 598.737 260.55 580.944 313.283C582.286 252.902 551.425 201.86 509.212 159.083C479.639 129.107 446.523 108.981 396.42 100.071V98.5145Z" fill="#1A9E7A"/>
<path d="M385.874 174.649C422.586 152.911 483.825 180.499 506.502 222.9C524.401 256.257 522.12 283.307 505.267 313.417C504.408 263.959 471.561 201.699 386.116 176.473L385.874 174.649Z" fill="#1A9E7A"/>
<path d="M634.106 394.354C632.818 392.824 632.174 390.892 632.174 388.88C632.067 382.332 629.329 376.964 628.793 372.778C626.109 353.241 617.468 342.453 608.934 344.278C606.277 344.922 605.5 345 602.5 346.5L597 349C597 349 591.5 352.5 591.5 353L590 354.5L588.029 357.347C577.5 358.5 566.909 363.332 558.912 370.9L556.47 370.577C544.742 381.714 536.316 396.259 531.593 409.838C527.621 437.318 518.443 469.253 498.37 496.626C456.801 554.672 397.333 583.601 325.895 584.353C209.347 585.587 107.397 494.452 97.7094 368.082L97.4411 350.907C90.7321 435.037 136.648 517.209 211.762 563.528L210.984 563.125C131.791 522.845 86.2505 452.803 87.2971 359.36C88.3437 272.224 134.287 188.871 231.54 138.769L231.03 138.232C174.916 162.975 132.435 200.76 102.352 251.56C130.744 185.812 192.655 134.368 283.012 107.29L282.502 106.27C249.118 111.074 219.142 123.74 187.905 137.722C214.526 116.253 234.063 110.645 264.039 99.8028L263.26 99.4003C238.732 103.962 215.17 112.791 193.836 124.653L193.192 123.875L206.851 114.08L206.073 113.704C107.531 155.97 40.4415 256.9 39.7975 359.092C39.6633 384.586 42.5079 407.477 48.0629 426.021C40.5757 399.346 39.1534 375.22 39.7975 351.068C45.0573 225.583 147.007 72.9132 384.317 72.2692V71.8935C362.58 67.1972 346.505 65.9091 325.037 66.0432C217.988 66.9557 130.1 112.389 85.2307 182.806C131.925 116.119 209.615 58.4487 325.573 53.8866C198.827 52.5984 89.6586 132.006 47.0163 217.935C43.0446 227.327 39.6633 235.512 36.8187 241.255C53.8863 201.243 50.7734 208.569 48.5997 212.353C21.4417 262.375 16.4502 311.726 16.4502 361.48C16.4502 436.54 46.8821 509.695 97.0653 565.863C131.013 608.129 177.707 635.985 218.364 652.14L236.532 657.373C230.011 654.502 223.436 651.362 216.915 648.115C252.606 661.828 285.051 668.242 321.011 667.732C415.715 666.444 480.122 630.564 536.316 576.463C566.158 549.385 589.102 515.518 607.807 477.733C625.036 448.026 637.702 414.535 634.106 394.354ZM325.573 649.51V649C402.351 647.846 458.653 623.345 519.892 565.809C469.387 619.132 410.912 647.068 325.573 649.51Z" fill="#1A9E7A"/>
</svg>
